HIERARCHY
ROOT Hips
{
	OFFSET -29.392864 -30.364742 87.758667
	CHANNELS 6 Xposition Yposition Zposition Zrotation Yrotation Xrotation
	JOINT Spine
	{
		OFFSET 0.000000 2.080109 8.814247
		CHANNELS 6 Xposition Yposition Zposition Zrotation Yrotation Xrotation
		JOINT Spine1
		{
			OFFSET 0.000000 0.000000 8.844139
			CHANNELS 6 Xposition Yposition Zposition Zrotation Yrotation Xrotation
			JOINT Spine2
			{
				OFFSET 0.000000 0.000002 11.682266
				CHANNELS 6 Xposition Yposition Zposition Zrotation Yrotation Xrotation
				JOINT Spine3
				{
					OFFSET 0.000000 0.000000 11.746704
					CHANNELS 6 Xposition Yposition Zposition Zrotation Yrotation Xrotation
					JOINT Neck
					{
						OFFSET 0.000000 0.000002 17.658264
						CHANNELS 6 Xposition Yposition Zposition Zrotation Yrotation Xrotation
						JOINT Neck1
						{
							OFFSET 0.000000 0.000000 5.101517
							CHANNELS 6 Xposition Yposition Zposition Zrotation Yrotation Xrotation
							JOINT Head
							{
								OFFSET 0.000000 0.000000 5.101517
								CHANNELS 6 Xposition Yposition Zposition Zrotation Yrotation Xrotation
								JOINT HeadEnd
								{
									OFFSET 0.000000 0.000002 11.655090
									CHANNELS 6 Xposition Yposition Zposition Zrotation Yrotation Xrotation
									End Site
									{
										OFFSET 0.000000 0.000000 0.100006
									}
								}
							}
						}
					}
					JOINT RightShoulder
					{
						OFFSET -2.625389 0.000002 11.175217
						CHANNELS 6 Xposition Yposition Zposition Zrotation Yrotation Xrotation
						JOINT RightArm
						{
							OFFSET 0.000000 0.000000 10.434723
							CHANNELS 6 Xposition Yposition Zposition Zrotation Yrotation Xrotation
							JOINT RightForeArm
							{
								OFFSET 0.000000 0.000002 29.628418
								CHANNELS 6 Xposition Yposition Zposition Zrotation Yrotation Xrotation
								JOINT RightHand
								{
									OFFSET 0.000000 0.000002 22.857605
									CHANNELS 6 Xposition Yposition Zposition Zrotation Yrotation Xrotation
									JOINT RightHandThumb1
									{
										OFFSET -2.867321 -2.944290 3.959564
										CHANNELS 6 Xposition Yposition Zposition Zrotation Yrotation Xrotation
										JOINT RightHandThumb2
										{
											OFFSET 0.000000 0.000000 3.350403
											CHANNELS 6 Xposition Yposition Zposition Zrotation Yrotation Xrotation
											JOINT RightHandThumb3
											{
												OFFSET 0.000000 0.000000 3.756516
												CHANNELS 6 Xposition Yposition Zposition Zrotation Yrotation Xrotation
												JOINT RightHandThumb4
												{
													OFFSET 0.000000 0.000002 3.147339
													CHANNELS 6 Xposition Yposition Zposition Zrotation Yrotation Xrotation
													End Site
													{
														OFFSET 0.000000 0.000000 0.100006
													}
												}
											}
										}
									}
									JOINT RightHandIndex1
									{
										OFFSET -0.086754 -2.345280 10.030899
										CHANNELS 6 Xposition Yposition Zposition Zrotation Yrotation Xrotation
										JOINT RightHandIndex2
										{
											OFFSET 0.000000 0.000002 4.061096
											CHANNELS 6 Xposition Yposition Zposition Zrotation Yrotation Xrotation
											JOINT RightHandIndex3
											{
												OFFSET 0.000000 0.000000 3.248871
												CHANNELS 6 Xposition Yposition Zposition Zrotation Yrotation Xrotation
												JOINT RightHandIndex4
												{
													OFFSET 0.000000 0.000000 2.639709
													CHANNELS 6 Xposition Yposition Zposition Zrotation Yrotation Xrotation
													End Site
													{
														OFFSET 0.000000 0.000000 0.100006
													}
												}
											}
										}
									}
									JOINT RightHandMiddle1
									{
										OFFSET 0.104101 -0.006767 9.502945
										CHANNELS 6 Xposition Yposition Zposition Zrotation Yrotation Xrotation
										JOINT RightHandMiddle2
										{
											OFFSET 0.000000 0.000002 4.568726
											CHANNELS 6 Xposition Yposition Zposition Zrotation Yrotation Xrotation
											JOINT RightHandMiddle3
											{
												OFFSET 0.000000 0.000000 3.654984
												CHANNELS 6 Xposition Yposition Zposition Zrotation Yrotation Xrotation
												JOINT RightHandMiddle4
												{
													OFFSET 0.000000 0.000000 2.741241
													CHANNELS 6 Xposition Yposition Zposition Zrotation Yrotation Xrotation
													End Site
													{
														OFFSET 0.000000 0.000000 0.100006
													}
												}
											}
										}
									}
									JOINT RightHandRing1
									{
										OFFSET 0.086752 2.267443 8.921707
										CHANNELS 6 Xposition Yposition Zposition Zrotation Yrotation Xrotation
										JOINT RightHandRing2
										{
											OFFSET 0.000000 0.000002 4.061096
											CHANNELS 6 Xposition Yposition Zposition Zrotation Yrotation Xrotation
											JOINT RightHandRing3
											{
												OFFSET 0.000000 0.000000 3.654984
												CHANNELS 6 Xposition Yposition Zposition Zrotation Yrotation Xrotation
												JOINT RightHandRing4
												{
													OFFSET 0.000000 0.000000 2.741241
													CHANNELS 6 Xposition Yposition Zposition Zrotation Yrotation Xrotation
													End Site
													{
														OFFSET 0.000000 0.000000 0.100006
													}
												}
											}
										}
									}
									JOINT RightHandPinky1
									{
										OFFSET -0.173504 4.467199 7.976990
										CHANNELS 6 Xposition Yposition Zposition Zrotation Yrotation Xrotation
										JOINT RightHandPinky2
										{
											OFFSET 0.000000 0.000000 3.350403
											CHANNELS 6 Xposition Yposition Zposition Zrotation Yrotation Xrotation
											JOINT RightHandPinky3
											{
												OFFSET 0.000000 0.000002 2.842758
												CHANNELS 6 Xposition Yposition Zposition Zrotation Yrotation Xrotation
												JOINT RightHandPinky4
												{
													OFFSET 0.000000 0.000000 2.639709
													CHANNELS 6 Xposition Yposition Zposition Zrotation Yrotation Xrotation
													End Site
													{
														OFFSET 0.000000 0.000000 0.100006
													}
												}
											}
										}
									}
									JOINT RightForeArmEnd
									{
										OFFSET 0.000000 0.000000 0.000000
										CHANNELS 6 Xposition Yposition Zposition Zrotation Yrotation Xrotation
										End Site
										{
											OFFSET 0.000000 0.000000 0.100006
										}
									}
								}
								JOINT RightArmEnd
								{
									OFFSET 0.000000 0.000000 0.000000
									CHANNELS 6 Xposition Yposition Zposition Zrotation Yrotation Xrotation
									End Site
									{
										OFFSET 0.000000 0.000000 0.100006
									}
								}
							}
						}
					}
					JOINT LeftShoulder
					{
						OFFSET 2.625389 0.000002 11.175217
						CHANNELS 6 Xposition Yposition Zposition Zrotation Yrotation Xrotation
						JOINT LeftArm
						{
							OFFSET 0.000000 0.000000 10.813629
							CHANNELS 6 Xposition Yposition Zposition Zrotation Yrotation Xrotation
							JOINT LeftForeArm
							{
								OFFSET 0.000000 0.000002 28.724777
								CHANNELS 6 Xposition Yposition Zposition Zrotation Yrotation Xrotation
								JOINT LeftHand
								{
									OFFSET 0.644384 0.328873 25.716171
									CHANNELS 6 Xposition Yposition Zposition Zrotation Yrotation Xrotation
									JOINT LeftHandThumb1
									{
										OFFSET 2.867323 -2.944292 3.959564
										CHANNELS 6 Xposition Yposition Zposition Zrotation Yrotation Xrotation
										JOINT LeftHandThumb2
										{
											OFFSET 0.000000 0.000000 3.350403
											CHANNELS 6 Xposition Yposition Zposition Zrotation Yrotation Xrotation
											JOINT LeftHandThumb3
											{
												OFFSET 0.000000 0.000002 3.756516
												CHANNELS 6 Xposition Yposition Zposition Zrotation Yrotation Xrotation
												JOINT LeftHandThumb4
												{
													OFFSET 0.000000 0.000000 3.100006
													CHANNELS 6 Xposition Yposition Zposition Zrotation Yrotation Xrotation
													End Site
													{
														OFFSET 0.000000 0.000000 0.100006
													}
												}
											}
										}
									}
									JOINT LeftHandIndex1
									{
										OFFSET 0.086752 -2.345278 10.030899
										CHANNELS 6 Xposition Yposition Zposition Zrotation Yrotation Xrotation
										JOINT LeftHandIndex2
										{
											OFFSET 0.000000 0.000000 4.061096
											CHANNELS 6 Xposition Yposition Zposition Zrotation Yrotation Xrotation
											JOINT LeftHandIndex3
											{
												OFFSET 0.000000 0.000000 3.248871
												CHANNELS 6 Xposition Yposition Zposition Zrotation Yrotation Xrotation
												JOINT LeftHandIndex4
												{
													OFFSET 0.000000 0.000000 2.639709
													CHANNELS 6 Xposition Yposition Zposition Zrotation Yrotation Xrotation
													End Site
													{
														OFFSET 0.000000 0.000000 0.100006
													}
												}
											}
										}
									}
									JOINT LeftHandMiddle1
									{
										OFFSET -0.104101 -0.006765 9.502945
										CHANNELS 6 Xposition Yposition Zposition Zrotation Yrotation Xrotation
										JOINT LeftHandMiddle2
										{
											OFFSET 0.000000 0.000000 4.568726
											CHANNELS 6 Xposition Yposition Zposition Zrotation Yrotation Xrotation
											JOINT LeftHandMiddle3
											{
												OFFSET 0.000000 0.000000 3.654984
												CHANNELS 6 Xposition Yposition Zposition Zrotation Yrotation Xrotation
												JOINT LeftHandMiddle4
												{
													OFFSET 0.000000 0.000000 2.741241
													CHANNELS 6 Xposition Yposition Zposition Zrotation Yrotation Xrotation
													End Site
													{
														OFFSET 0.000000 0.000000 0.100006
													}
												}
											}
										}
									}
									JOINT LeftHandRing1
									{
										OFFSET -0.086752 2.267443 8.921707
										CHANNELS 6 Xposition Yposition Zposition Zrotation Yrotation Xrotation
										JOINT LeftHandRing2
										{
											OFFSET 0.000000 0.000002 4.061096
											CHANNELS 6 Xposition Yposition Zposition Zrotation Yrotation Xrotation
											JOINT LeftHandRing3
											{
												OFFSET 0.000000 0.000000 3.654984
												CHANNELS 6 Xposition Yposition Zposition Zrotation Yrotation Xrotation
												JOINT LeftHandRing4
												{
													OFFSET 0.000000 0.000000 2.741241
													CHANNELS 6 Xposition Yposition Zposition Zrotation Yrotation Xrotation
													End Site
													{
														OFFSET 0.000000 0.000000 0.100006
													}
												}
											}
										}
									}
									JOINT LeftHandPinky1
									{
										OFFSET 0.173504 4.467199 7.976990
										CHANNELS 6 Xposition Yposition Zposition Zrotation Yrotation Xrotation
										JOINT LeftHandPinky2
										{
											OFFSET 0.000000 0.000002 3.350403
											CHANNELS 6 Xposition Yposition Zposition Zrotation Yrotation Xrotation
											JOINT LeftHandPinky3
											{
												OFFSET 0.000000 0.000000 2.842758
												CHANNELS 6 Xposition Yposition Zposition Zrotation Yrotation Xrotation
												JOINT LeftHandPinky4
												{
													OFFSET 0.000000 0.000000 2.639709
													CHANNELS 6 Xposition Yposition Zposition Zrotation Yrotation Xrotation
													End Site
													{
														OFFSET 0.000000 0.000000 0.100006
													}
												}
											}
										}
									}
									JOINT LeftForeArmEnd
									{
										OFFSET 0.000000 0.000000 0.000000
										CHANNELS 6 Xposition Yposition Zposition Zrotation Yrotation Xrotation
										End Site
										{
											OFFSET 0.000000 0.000000 0.100006
										}
									}
								}
								JOINT LeftArmEnd
								{
									OFFSET 0.000000 0.000000 0.000000
									CHANNELS 6 Xposition Yposition Zposition Zrotation Yrotation Xrotation
									End Site
									{
										OFFSET 0.000000 0.000000 0.100006
									}
								}
							}
						}
					}
				}
			}
		}
	}
	JOINT RightUpLeg
	{
		OFFSET -11.289944 0.000000 0.000000
		CHANNELS 6 Xposition Yposition Zposition Zrotation Yrotation Xrotation
		JOINT RightLeg
		{
			OFFSET 0.000000 -0.000002 -38.200321
			CHANNELS 6 Xposition Yposition Zposition Zrotation Yrotation Xrotation
			JOINT RightFoot
			{
				OFFSET 0.000000 -0.000004 -39.900856
				CHANNELS 6 Xposition Yposition Zposition Zrotation Yrotation Xrotation
				JOINT RightToeBase
				{
					OFFSET 0.000000 -15.261641 0.000002
					CHANNELS 6 Xposition Yposition Zposition Zrotation Yrotation Xrotation
					JOINT RightToeBaseEnd
					{
						OFFSET 0.000000 -7.370708 0.000000
						CHANNELS 6 Xposition Yposition Zposition Zrotation Yrotation Xrotation
						End Site
						{
							OFFSET 0.000000 0.000000 0.100000
						}
					}
				}
				JOINT RightLegEnd
				{
					OFFSET 0.000000 0.000000 0.000000
					CHANNELS 6 Xposition Yposition Zposition Zrotation Yrotation Xrotation
					End Site
					{
						OFFSET 0.000000 0.000000 0.100000
					}
				}
			}
			JOINT RightUpLegEnd
			{
				OFFSET 0.000000 0.000000 0.000000
				CHANNELS 6 Xposition Yposition Zposition Zrotation Yrotation Xrotation
				End Site
				{
					OFFSET 0.000000 0.000000 0.099998
				}
			}
		}
	}
	JOINT LeftUpLeg
	{
		OFFSET 11.315662 0.000000 0.000000
		CHANNELS 6 Xposition Yposition Zposition Zrotation Yrotation Xrotation
		JOINT LeftLeg
		{
			OFFSET 0.000000 -0.000002 -38.200321
			CHANNELS 6 Xposition Yposition Zposition Zrotation Yrotation Xrotation
			JOINT LeftFoot
			{
				OFFSET 0.000000 -0.000004 -39.900856
				CHANNELS 6 Xposition Yposition Zposition Zrotation Yrotation Xrotation
				JOINT LeftToeBase
				{
					OFFSET 0.000000 -15.261641 0.000002
					CHANNELS 6 Xposition Yposition Zposition Zrotation Yrotation Xrotation
					JOINT LeftToeBaseEnd
					{
						OFFSET 0.000000 -7.539997 0.000000
						CHANNELS 6 Xposition Yposition Zposition Zrotation Yrotation Xrotation
						End Site
						{
							OFFSET 0.000000 0.000000 0.100000
						}
					}
				}
				JOINT LeftLegEnd
				{
					OFFSET 0.000000 0.000000 0.000000
					CHANNELS 6 Xposition Yposition Zposition Zrotation Yrotation Xrotation
					End Site
					{
						OFFSET 0.000000 0.000000 0.100000
					}
				}
			}
			JOINT LeftUpLegEnd
			{
				OFFSET 0.000000 0.000000 0.000000
				CHANNELS 6 Xposition Yposition Zposition Zrotation Yrotation Xrotation
				End Site
				{
					OFFSET 0.000000 0.000000 0.099998
				}
			}
		}
	}
}
MOTION
Frames: 2
Frame Time: 0.016667
-6.429619 -12.394796 79.681595 -8.710514 -12.117443 18.072441 -0.000001 2.080106 8.814244 -0.262785 -4.660412 10.554243 -0.000000 -0.000004 8.844165 -2.660864 -6.016101 18.932437 0.000007 0.000007 11.682263 -0.381921 -1.719715 14.964883 -0.000002 0.000019 11.746702 0.642078 0.437936 3.451596 -0.000001 0.000009 17.658264 0.573791 -14.864320 19.160788 0.000004 0.000001 5.101517 3.016721 1.440136 1.563547 0.000002 -0.000007 5.101520 3.026650 -0.062365 -19.288032 -0.000009 -0.000004 11.655090 0.000002 0.000001 0.000001 -2.625397 0.000005 11.175215 10.254482 -85.619905 -0.048606 0.000010 0.000002 10.434721 -70.073527 -10.745020 34.269969 0.000002 -0.000010 29.628428 4.001145 1.871143 83.011496 -0.000006 0.000017 22.857578 -46.766035 37.963400 17.816139 -2.867313 -2.944301 3.959555 32.415941 -13.591543 57.445668 0.000000 0.000001 3.350402 -4.708417 4.020480 -9.020814 -0.000003 -0.000005 3.756521 -3.201706 2.871528 -6.226799 0.000001 0.000005 3.147342 0.000001 0.000001 -0.000006 -0.086750 -2.345287 10.030892 -6.000967 15.851013 15.871731 0.000003 -0.000004 4.061093 1.375463 -0.000053 0.000093 0.000003 -0.000006 3.248868 0.822849 -0.000004 0.070332 -0.000006 0.000011 2.639710 -0.000002 -0.000002 -0.000002 0.104116 -0.006781 9.502962 -0.977449 14.931608 12.230417 0.000003 -0.000002 4.568732 1.369135 0.000017 -0.001539 -0.000002 0.000008 3.654988 0.904136 -0.000008 0.002023 0.000001 -0.000006 2.741241 -0.000000 -0.000002 -0.000001 0.086763 2.267426 8.921707 7.714113 16.243086 8.659958 -0.000006 0.000009 4.061093 -1.823661 -0.000042 0.000998 0.000004 0.000002 3.654980 -0.652108 0.000048 -0.119393 -0.000001 -0.000000 2.741257 0.000000 -0.000001 -0.000001 -0.173495 4.467191 7.976979 17.118150 17.980056 5.791580 0.000004 -0.000002 3.350432 -2.570888 0.000147 -0.000644 0.000001 0.000002 2.842774 -0.860716 0.000006 -0.040188 -0.000004 0.000002 2.639709 0.000000 -0.000001 0.000000 0.000004 -0.000009 -0.000001 -0.000001 -0.000001 -0.000000 -0.000004 -0.000002 0.000001 0.000001 -0.000002 -0.000004 2.625387 0.000006 11.175220 -8.942046 86.211262 -0.756295 0.000000 0.000009 10.813629 65.531430 21.371542 54.308391 -0.000006 -0.000008 28.724777 -7.701594 1.121737 75.245899 0.644390 0.328879 25.716162 35.265674 -35.800262 -3.845482 2.867327 -2.944301 3.959525 -31.510914 18.686303 49.385324 0.000007 0.000001 3.350388 15.831357 -9.532155 -28.101524 -0.000005 0.000007 3.756553 10.488666 -7.464907 -19.195000 0.000002 -0.000005 3.100038 0.000000 0.000000 -0.000001 0.086759 -2.345280 10.030903 -3.730876 32.706224 4.815132 0.000001 0.000000 4.061127 -0.149557 22.269454 -3.299353 0.000008 -0.000003 3.248859 -0.649580 22.269501 -3.299382 -0.000000 0.000001 2.639726 -0.000000 0.000002 0.000000 -0.104089 -0.006766 9.502965 1.204187 27.190157 6.001391 0.000010 -0.000002 4.568724 0.326494 19.024618 -1.035437 0.000012 -0.000000 3.654967 -0.173347 19.024910 -1.035431 0.000004 -0.000004 2.741241 -0.000001 -0.000001 -0.000001 -0.086744 2.267446 8.921724 7.831469 16.783851 8.574436 0.000002 -0.000001 4.061090 -0.916954 12.351903 0.767422 0.000005 -0.000002 3.655001 0.083323 12.351905 0.767474 -0.000004 0.000001 2.741243 -0.000000 0.000004 0.000000 0.173502 4.467203 7.976975 14.389533 6.176884 8.653041 -0.000002 0.000003 3.350408 -1.947472 5.554502 1.083149 -0.000003 -0.000003 2.842776 0.052540 5.554485 1.083137 0.000001 0.000003 2.639725 0.000001 0.000001 0.000000 0.000002 0.000000 -0.000015 0.000001 0.000001 0.000000 0.000004 0.000002 -0.000000 -0.000001 -0.000002 -0.000001 -11.289950 -0.000003 0.000004 -3.554606 9.810912 -55.722326 -0.000002 -0.000019 -38.200329 0.067758 -0.155284 66.425543 0.000002 -0.000004 -39.900852 -8.856067 5.138742 5.312429 0.000001 -15.261633 -0.000005 -1.456740 -1.480850 -35.243954 0.000003 -7.370709 0.000001 0.000001 -0.000000 0.000000 -0.000000 0.000001 -0.000001 -0.000001 0.000001 0.000002 -0.000003 0.000003 -0.000002 -0.000000 0.000000 -0.000002 11.315660 0.000007 -0.000000 2.923120 -6.538544 -51.748177 -0.000005 -0.000011 -38.200329 0.289539 -0.576640 63.336474 0.000001 -0.000011 -39.900856 -0.165392 9.256671 49.035492 0.000004 -15.261634 0.000001 -3.904597 5.711610 -60.121627 0.000002 -7.539993 0.000001 0.000000 -0.000000 -0.000002 0.000004 0.000000 -0.000001 -0.000000 0.000000 0.000000 -0.000002 -0.000004 0.000003 0.000000 -0.000001 0.000001 
-6.243019 -12.238367 79.505943 -8.666970 -12.295147 18.612764 -0.000002 2.080106 8.814260 -0.249460 -4.635174 10.604705 -0.000003 0.000003 8.844158 -2.735999 -6.107927 19.225953 0.000001 0.000004 11.682270 -0.392323 -1.682928 15.016924 0.000001 0.000000 11.746702 0.647617 0.475939 3.437915 -0.000005 -0.000007 17.658295 0.477461 -15.036972 19.398576 0.000003 -0.000005 5.101517 2.941368 1.420060 1.781398 0.000003 -0.000010 5.101499 3.022863 -0.078661 -19.320969 -0.000001 0.000015 11.655090 0.000002 0.000000 0.000001 -2.625393 0.000002 11.175211 10.219129 -85.611954 -0.047893 0.000003 0.000002 10.434713 -70.011290 -10.929393 34.130237 0.000001 0.000007 29.628441 3.929547 1.883736 83.441388 -0.000006 0.000023 22.857620 -47.729369 38.928469 17.625274 -2.867322 -2.944292 3.959556 32.365008 -13.750572 57.171870 0.000000 0.000007 3.350374 -5.044766 4.261327 -9.634896 -0.000002 0.000003 3.756499 -3.426253 3.050283 -6.647965 -0.000003 0.000003 3.147341 -0.000000 -0.000001 -0.000005 -0.086758 -2.345285 10.030912 -6.174716 14.790500 15.195711 -0.000001 0.000006 4.061098 1.375377 0.019776 0.000574 -0.000001 -0.000007 3.248869 0.822771 -0.010985 0.070406 0.000001 -0.000011 2.639708 -0.000001 -0.000002 0.000000 0.104111 -0.006772 9.502977 -1.133481 14.032179 11.636684 -0.000001 0.000008 4.568719 1.369085 0.000025 -0.001534 0.000001 -0.000004 3.654987 0.903740 -0.000011 0.002019 0.000002 -0.000002 2.741241 0.000000 -0.000000 0.000001 0.086754 2.267442 8.921721 7.573425 15.600914 8.188835 0.000003 -0.000004 4.061097 -1.823749 -0.000060 0.001000 0.000005 -0.000001 3.654983 -0.652163 0.000036 -0.119717 -0.000002 -0.000006 2.741242 -0.000000 0.000001 -0.000000 -0.173509 4.467198 7.976990 17.003621 17.592262 5.542410 0.000000 0.000010 3.350423 -2.569451 0.000103 -0.000644 -0.000000 0.000006 2.842739 -0.858545 0.000003 -0.040549 -0.000000 -0.000002 2.639711 0.000000 0.000002 -0.000001 -0.000003 0.000000 -0.000015 0.000002 -0.000000 -0.000001 0.000004 0.000002 0.000030 0.000002 -0.000000 0.000001 2.625389 -0.000007 11.175230 -8.846134 86.129771 -0.741327 -0.000001 0.000005 10.813629 65.638842 20.969698 54.204467 0.000005 -0.000021 28.724770 -7.669361 1.116649 75.581671 0.644380 0.328879 25.716166 35.902893 -37.060965 -4.284323 2.867327 -2.944291 3.959538 -31.511006 18.686219 49.385229 0.000002 -0.000007 3.350396 15.831330 -9.532115 -28.101510 0.000002 0.000001 3.756535 10.488674 -7.464838 -19.194911 0.000001 0.000000 3.099991 0.000001 0.000001 0.000001 0.086756 -2.345283 10.030884 -3.669384 33.156405 4.630944 -0.000002 0.000001 4.061093 -0.170454 22.601946 -3.354123 0.000018 0.000004 3.248850 -0.670461 22.601941 -3.354120 -0.000008 -0.000000 2.639709 0.000001 0.000001 0.000001 -0.104092 -0.006765 9.502928 1.293967 27.665381 5.880298 0.000012 0.000001 4.568731 0.319857 19.367956 -1.055611 0.000009 0.000001 3.654973 -0.179987 19.367949 -1.055550 0.000007 0.000002 2.741241 0.000001 -0.000002 -0.000001 -0.086746 2.267440 8.921717 7.938763 17.272672 8.552470 0.000006 0.000002 4.061080 -0.912146 12.696847 0.789584 0.000009 0.000002 3.655012 0.085585 12.696858 0.789072 0.000001 0.000000 2.741256 0.000001 0.000000 0.000001 0.173504 4.467198 7.976975 14.476847 6.591257 8.754674 -0.000004 -0.000001 3.350393 -1.941650 5.851788 1.141574 -0.000000 0.000002 2.842790 0.054951 5.852189 1.141242 -0.000000 -0.000002 2.639725 0.000001 0.000000 0.000001 0.000001 -0.000002 0.000000 0.000000 0.000000 0.000000 -0.000007 -0.000001 -0.000015 0.000000 -0.000000 -0.000001 -11.289947 -0.000004 0.000015 -3.701455 10.105675 -56.793119 0.000000 -0.000011 -38.200336 0.077316 -0.182602 67.052438 0.000001 -0.000003 -39.900860 -8.907445 4.940076 5.365982 0.000003 -15.261632 -0.000005 -1.438645 -1.508112 -35.337701 0.000005 -7.370709 0.000003 0.000000 -0.000000 0.000000 -0.000000 0.000001 -0.000004 0.000001 0.000000 0.000002 0.000000 0.000001 -0.000013 -0.000000 0.000000 -0.000003 11.315658 -0.000000 -0.000003 3.025024 -6.266976 -52.449016 -0.000001 -0.000015 -38.200321 0.314583 -0.632264 63.546700 0.000001 -0.000009 -39.900860 -0.375242 9.398689 48.639437 0.000004 -15.261627 0.000000 -3.764738 5.426746 -60.424559 -0.000000 -7.539997 0.000001 0.000000 -0.000000 0.000001 0.000002 -0.000000 0.000001 0.000000 0.000000 -0.000001 -0.000003 -0.000007 -0.000005 -0.000000 -0.000000 0.000002 
